<svg id="Capa_1" enable-background="new 0 0 512 512" height="512" viewBox="0 0 512 512" width="512" xmlns="http://www.w3.org/2000/svg"><g><path d="m506.853 162.297-14.287-14.286c-6.863-6.863-18.03-6.863-24.893 0l-2.554 2.554-14.482-14.482c8.497-9.669 13.149-21.935 13.149-34.918 0-14.146-5.507-27.444-15.507-37.445-19.819-19.819-51.569-20.6-72.362-2.357l-14.482-14.482 2.554-2.554c6.863-6.863 6.863-18.03 0-24.893l-14.286-14.287c-6.863-6.863-18.03-6.864-24.893 0l-34.287 34.287c-3.325 3.325-5.156 7.745-5.156 12.447s1.831 9.122 5.156 12.447l14.286 14.286c3.431 3.432 7.939 5.147 12.446 5.147 4.508 0 9.015-1.715 12.447-5.147l2.554-2.554 14.397 14.397-.344.344c-7.402 7.403-16.749 12.418-27.021 14.502l-16.558 3.341c-13.177 2.674-25.16 9.105-34.653 18.597l-58.22 58.221c-2.929 2.929-2.929 7.678 0 10.607 1.464 1.464 3.384 2.197 5.303 2.197s3.839-.732 5.303-2.197l1.771-1.771v27.936h-27.936l1.36-1.36c2.929-2.929 2.929-7.678 0-10.607s-7.678-2.929-10.607 0l-57.81 57.809c-9.492 9.493-15.923 21.476-18.599 34.661l-3.338 16.542c-2.086 10.281-7.101 19.627-14.499 27.024l-.349.348-14.396-14.395 2.554-2.554c6.863-6.863 6.863-18.03 0-24.893l-14.286-14.286c-3.325-3.325-7.745-5.156-12.447-5.156s-9.122 1.831-12.447 5.156l-34.287 34.288c-6.863 6.863-6.863 18.03 0 24.893l14.287 14.286c3.431 3.432 7.939 5.147 12.446 5.147 4.508 0 9.015-1.715 12.447-5.147l2.554-2.554 14.482 14.482c-8.497 9.669-13.149 21.935-13.149 34.918 0 14.146 5.507 27.444 15.507 37.445 10.322 10.322 23.878 15.483 37.442 15.482 12.479-.001 24.956-4.384 34.92-13.125l14.482 14.482-2.554 2.554c-6.863 6.863-6.863 18.03 0 24.893l14.286 14.287c3.432 3.432 7.938 5.147 12.446 5.147 4.507 0 9.016-1.716 12.447-5.147l34.287-34.287c3.325-3.325 5.156-7.745 5.156-12.447s-1.831-9.122-5.156-12.447l-14.286-14.286c-6.863-6.863-18.03-6.863-24.893 0l-2.554 2.554-14.397-14.397.344-.345c7.402-7.403 16.749-12.418 27.021-14.502l16.559-3.341c13.177-2.674 25.16-9.105 34.653-18.597l57.676-57.676c2.929-2.929 2.929-7.678 0-10.607s-7.678-2.929-10.607 0l-1.227 1.227v-27.936h27.936l-1.818 1.818c-2.929 2.929-2.929 7.678 0 10.607 1.464 1.465 3.384 2.197 5.303 2.197s3.839-.732 5.303-2.197l58.268-58.267c9.492-9.493 15.923-21.476 18.599-34.661l3.339-16.542c2.086-10.281 7.101-19.627 14.499-27.024l.349-.348 14.397 14.397-2.554 2.554c-6.863 6.863-6.863 18.03 0 24.893l14.286 14.286c3.325 3.325 7.745 5.156 12.447 5.156s9.122-1.831 12.447-5.156l34.288-34.287c6.861-6.866 6.861-18.033-.002-24.896zm-69.18-87.97c7.166 7.167 11.113 16.698 11.113 26.838 0 8.979-3.102 17.481-8.781 24.286l-53.453-53.453c14.902-12.414 37.149-11.643 51.121 2.329zm-122.257-6.32-14.286-14.286c-.663-.664-.762-1.438-.762-1.84s.099-1.177.762-1.84l34.287-34.287c.507-.507 1.174-.761 1.84-.761.667 0 1.333.254 1.84.761l14.286 14.287c1.014 1.014 1.014 2.665 0 3.679l-34.287 34.287c-1.015 1.015-2.665 1.015-3.68 0zm-285.375 285.376-14.287-14.286c-1.014-1.015-1.014-2.665 0-3.68l34.288-34.287c.663-.663 1.437-.762 1.839-.762s1.176.099 1.84.762l14.286 14.286c1.014 1.014 1.014 2.665 0 3.679l-34.287 34.288c-1.015 1.015-2.665 1.013-3.679 0zm44.286 84.29c-7.166-7.167-11.113-16.698-11.113-26.838 0-8.979 3.102-17.481 8.781-24.286l53.453 53.453c-14.903 12.414-37.149 11.642-51.121-2.329zm120.417 5.559c.667 0 1.333.253 1.84.761l14.286 14.286c.663.664.762 1.438.762 1.84s-.099 1.177-.762 1.84l-34.287 34.287c-1.015 1.015-2.665 1.014-3.68 0l-14.286-14.287c-1.014-1.014-1.014-2.665 0-3.679l34.287-34.287c.508-.507 1.174-.761 1.84-.761zm-33.572 11.281-103.684-103.684 7.966-7.966 29.326 29.326c3.424 3.424 7.976 5.31 12.819 5.31 4.842 0 9.394-1.886 12.818-5.309 4.968-4.97 13.031-5.271 17.97-.669 2.555 2.379 3.996 5.604 4.057 9.081.062 3.48-1.259 6.751-3.719 9.211l-.342.342c-3.424 3.424-5.31 7.976-5.31 12.819 0 4.842 1.886 9.394 5.31 12.818l30.755 30.755zm45.123-65.86-16.559 3.341c-13.178 2.674-25.16 9.105-34.657 18.602l-.339.34-5.751-5.751c-1.219-1.22-1.219-3.204 0-4.423l.342-.342c5.365-5.364 8.245-12.497 8.11-20.084-.135-7.584-3.271-14.613-8.831-19.792-10.781-10.04-28.186-9.574-38.801 1.039-.797.797-1.728.916-2.211.916-.484 0-1.415-.119-2.211-.916l-4.322-4.322.344-.344c9.493-9.492 15.924-21.475 18.599-34.66l3.338-16.543c1.148-5.656 3.187-11.026 6.017-15.948h92.872v92.872c-4.921 2.83-10.289 4.868-15.94 6.015zm75.97-113.888c-4.142 0-7.5 3.358-7.5 7.5v50.437l-37.53 37.53v-87.967c0-4.142-3.358-7.5-7.5-7.5h-87.967l37.53-37.53h50.437c4.142 0 7.5-3.358 7.5-7.5v-50.437l37.53-37.53v87.967c0 4.142 3.358 7.5 7.5 7.5h87.967l-37.53 37.53zm128.327-119.682c-9.493 9.492-15.924 21.475-18.599 34.661l-3.338 16.542c-1.148 5.656-3.187 11.026-6.017 15.948h-92.872v-92.872c4.921-2.83 10.289-4.869 15.94-6.015l16.559-3.341c13.178-2.674 25.16-9.105 34.657-18.602l.339-.339 4.322 4.322c.797.796.916 1.727.916 2.211 0 .483-.119 1.414-.916 2.211-10.614 10.614-11.079 28.02-1.039 38.801 5.179 5.56 12.208 8.697 19.792 8.831 7.578.121 14.719-2.746 20.084-8.11l.342-.342c1.219-1.22 3.203-1.219 4.423 0l5.751 5.751zm5.2-16.701c-3.424-3.424-7.976-5.31-12.818-5.31s-9.395 1.886-12.819 5.31l-.342.342c-2.46 2.46-5.71 3.782-9.211 3.719-3.477-.062-6.702-1.502-9.081-4.057-4.6-4.939-4.3-13 .669-17.97 3.424-3.424 5.31-7.976 5.31-12.818s-1.886-9.395-5.31-12.818l-29.326-29.326 7.966-7.966 103.684 103.684-7.966 7.966zm80.454 38.202-34.288 34.287c-.663.663-1.437.762-1.839.762s-1.176-.099-1.84-.762l-14.286-14.286c-1.014-1.014-1.014-2.665 0-3.679l34.287-34.287c.507-.507 1.173-.761 1.839-.761.667 0 1.333.254 1.84.761l14.287 14.286c1.014 1.013 1.014 2.664 0 3.679z"/></g></svg>